<?xml version="1.0" encoding="UTF-8" standalone="no"?>
<svg
   xmlns:dc="http://purl.org/dc/elements/1.1/"
   xmlns:cc="http://creativecommons.org/ns#"
   xmlns:rdf="http://www.w3.org/1999/02/22-rdf-syntax-ns#"
   xmlns:svg="http://www.w3.org/2000/svg"
   xmlns="http://www.w3.org/2000/svg"
   xmlns:sodipodi="http://sodipodi.sourceforge.net/DTD/sodipodi-0.dtd"
   xmlns:inkscape="http://www.inkscape.org/namespaces/inkscape"
   id="Layer_4"
   version="1.1"
   viewBox="0 0 98.003868 65.68988"
   xml:space="preserve"
   inkscape:version="0.91 r13725"
   sodipodi:docname="chip.svg"
   width="98.003868"
   height="65.68988"><metadata
     id="metadata15"><rdf:RDF><cc:Work
         rdf:about=""><dc:format>image/svg+xml</dc:format><dc:type
           rdf:resource="http://purl.org/dc/dcmitype/StillImage" /><dc:title></dc:title></cc:Work></rdf:RDF></metadata><defs
     id="defs13" /><sodipodi:namedview
     pagecolor="#ffffff"
     bordercolor="#666666"
     borderopacity="1"
     objecttolerance="10"
     gridtolerance="10"
     guidetolerance="10"
     inkscape:pageopacity="0"
     inkscape:pageshadow="2"
     inkscape:window-width="1920"
     inkscape:window-height="1006"
     id="namedview11"
     showgrid="false"
     fit-margin-top="0"
     fit-margin-left="0"
     fit-margin-right="0"
     fit-margin-bottom="0"
     inkscape:zoom="1.84375"
     inkscape:cx="50.12564"
     inkscape:cy="32.905524"
     inkscape:window-x="0"
     inkscape:window-y="24"
     inkscape:window-maximized="1"
     inkscape:current-layer="Layer_4" /><style
     type="text/css"
     id="style3">
	.st0{fill:#C9B53A;}
	.st1{fill:#231F20;}
	.st2{fill:#FFF066;}
</style><path
     class="st0"
     d="m 7.6408941,25.584353 c -4.6,7.4 -0.5,15.5 8.2999999,15.6 7.5,0.1 14.3,-5.5 19.4,-10.3 2.2,-2 4.1,-4.3 5.9,-6.7 -4.1,-4.5 -9.1,-8 -15.5,-8.1 -6.9,0 -14.4,3.6 -18.0999999,9.5 z"
     id="path5"
     inkscape:connector-curvature="0"
     style="fill:#c9b53a" /><path
     class="st1"
     d="m 82.440894,1.7843527 c -8.4,-3 -18,-2.39999996 -25.2,3.2 -5.1,4 -8.9,9.5000003 -12.7,14.9000003 -5.9,-6.2 -13.6,-10.0000003 -22.5,-8.8 -9.2,1.3 -18.3999999,7.4 -21.29999986,16.5 -1,3.3 -1.1,7.4 0.39999996,10.5 9.1999999,18 29.6999999,28.8 49.5999999,27.5 16.7,-1.1 35.1,-8.3 43.5,-23.7 7.499996,-13.6 3.9,-34.5000003 -11.8,-40.1000003 z M 7.6408941,25.584353 c 3.6999999,-6 11.1999999,-9.5 18.1999999,-9.5 6.4,0.1 11.4,3.6 15.5,8.1 -1.8,2.4 -3.7,4.7 -5.9,6.7 -5.2,4.8 -12,10.4 -19.4,10.3 -8.8999999,0 -12.9999999,-8.2 -8.3999999,-15.6 z m 62.8999999,29.8 c -18.8,8.2 -42,5.3 -56.4,-8.8 9.6,1 18.4,-5.6 25.1,-11.8 4.1,-3.8 7.5,-8.1 10.7,-12.6 3.3,-4.7 6.5,-10.3 11.4,-13.7000003 8.5,-5.9 22.3,-3.7 27.9,5.2000003 10.6,17.2 -3.2,35 -18.7,41.7 z"
     id="path7"
     inkscape:connector-curvature="0"
     style="fill:#231f20" /><path
     class="st2"
     d="m 70.540894,55.384353 c 15.5,-6.8 29.3,-24.6 18.7,-41.6 -5.5,-8.9000003 -19.4,-11.1000003 -27.9,-5.2000003 -4.9,3.4000003 -8,8.9000003 -11.4,13.7000003 -3.2,4.5 -6.7,8.7 -10.7,12.5 -6.6,6.2 -15.5,12.8 -25.1,11.8 14.4,14.1 37.6,17.1 56.4,8.8 z m -28.9,-1.7 c -0.2,0 -0.4,0 -0.7,0 0.2,-0.2 0.5,-0.3 0.7,-0.4 0.1,0.1 0,0.3 0,0.4 z"
     id="path9"
     inkscape:connector-curvature="0"
     style="fill:#fff066" /></svg>